<?xml version="1.0" encoding="utf-8"?>
<!-- Generator: Adobe Illustrator 23.0.1, SVG Export Plug-In . SVG Version: 6.00 Build 0)  -->
<svg version="1.1" id="Capa_1" xmlns="http://www.w3.org/2000/svg" xmlns:xlink="http://www.w3.org/1999/xlink" x="0px" y="0px"
	 viewBox="0 0 200 60" style="enable-background:new 0 0 200 60;" xml:space="preserve">
<style type="text/css">
	.st0{fill:#FFFFFF;}
</style>
<g>
	<g>
		<path class="st0" d="M73.27,38.42v3.23h5.56c0,0.11-0.03,1.96-1.45,1.96H72.6c0,0-2.01,0-2.01-1.25V31.85h8.24
			c0,0,0,1.97-1.45,1.97h-4.11v2.62h1c1.54,0,2.27-0.02,2.27-0.02c0,1.12-0.67,1.99-2.21,1.99H73.27z"/>
		<path class="st0" d="M80.46,37.71c0-1.92,1.15-2.81,3.56-2.81c2.12,0,3.2,0.61,3.2,1.68c0,0.45-0.02,0.62-0.32,1.24
			c-0.24-1.05-1.34-1.09-2.41-1.09c-0.81,0-1.46,0.31-1.46,0.8c0,1.28,5.06-0.39,5.06,3.54c0,1.71-1.29,2.73-3.88,2.73
			c-2.24,0-3.58-0.76-3.58-1.86c0-0.52,0.11-0.79,0.29-1.22c0.37,1.43,2.44,1.25,3.28,1.25c0.5,0,1.32-0.18,1.32-0.99
			C85.52,39.58,80.46,41.28,80.46,37.71z"/>
		<path class="st0" d="M90.12,32.59c0,0,2.62-0.18,2.62,1.26v1.72h2.91c0,0-0.02,1.97-1.45,1.97h-1.46v2.77c0,1,0.22,1.54,1.36,1.54
			c0.76,0,1.44,0.15,1.83-0.9c0.25,0.45,0.25,0.92,0.25,1.36c0,0.3-0.22,1.11-0.81,1.24c-0.45,0.1-0.78,0.14-1.66,0.14
			c-0.88,0-1.84-0.02-2.31-0.17c-1.2-0.38-1.27-1.36-1.27-2.75V32.59z"/>
		<path class="st0" d="M98.28,42.88v-8.03c0.56,0.27,0.98,0.39,1.37,0.39c0.72,0,1.51-0.34,2.49-0.34c1.11,0,2.23,0.35,2.23,1.62
			c0,1.13-0.12,1.5-0.12,1.5c-0.2-1.52-2.19-1.29-3.36-1.02v6.57c0,0-0.61,0-1.24,0C98.98,43.57,98.28,43.52,98.28,42.88z"/>
		<path class="st0" d="M105.58,40.76v-2.83c0-1.89,1.34-3.04,3.75-3.04c2.41,0,3.44,1.15,3.44,2.88c0,1.42-0.7,2.75-3.3,2.75
			c-0.79,0-1.28-0.26-1.28-0.26v0.26c0,0.91,0.61,1.31,1.56,1.31c1.62,0,2.37-0.33,2.54-1.25c0.37,0.68,0.34,1.21,0.34,1.66
			c0,1.18-0.98,1.56-2.96,1.56C107.02,43.8,105.58,42.67,105.58,40.76z M108.2,38.53c0.23,0.06,0.56,0.13,0.89,0.13
			c0.56,0,1.09-0.19,1.09-0.89c0-0.58-0.26-0.97-0.95-0.97c-0.78,0-1.03,0.49-1.03,1.37V38.53z"/>
		<path class="st0" d="M115.02,30.19c0.17,0,2.62,0.02,2.62,1.25v9.44c0,0.89-0.11,2.34,0.95,2.7c-0.59,0-0.65-0.01-1.72-0.01
			c-1.07,0-1.85,0.09-1.85-1.36V30.19z"/>
		<path class="st0" d="M120.13,30.19c0.17,0,2.62,0.02,2.62,1.25v9.44c0,0.89-0.11,2.34,0.95,2.7c-0.59,0-0.65-0.01-1.72-0.01
			c-1.07,0-1.85,0.09-1.85-1.36V30.19z"/>
		<path class="st0" d="M151,30.19c0.17,0,2.62,0.02,2.62,1.25v9.44c0,0.89-0.11,2.34,0.95,2.7c-0.59,0-0.65-0.01-1.72-0.01
			c-1.07,0-1.85,0.09-1.85-1.36V30.19z"/>
		<path class="st0" d="M140.48,31.85h3.91c2.52,0,4.35,0.76,4.35,3.12v0.32c0,0.94-0.51,2.07-1.25,2.36c0.86,0.36,1.4,1.44,1.4,2.44
			v0.36c0,2.25-1.84,3.15-4.5,3.15h-1.92c0,0-1.99-0.02-1.99-1.25V31.85z M143.16,33.83v2.88h1.36c1.14,0,1.54-0.58,1.54-1.65
			c0-0.92-0.55-1.23-1.67-1.23H143.16z M143.16,38.66v2.99h1.23c1.28,0,1.82-0.39,1.82-1.44c0-1.08-0.51-1.55-1.7-1.55H143.16z"/>
		<path class="st0" d="M170.87,38c0-0.76-0.3-1.16-1.18-1.16c-0.55,0-1.2,0.15-1.2,0.15v6.58c0,0-0.72,0-1.42,0s-1.2,0.11-1.2-0.48
			v-8.43c0,0,0.69,0.59,1.71,0.59c0.76,0,1.5-0.34,2.32-0.34c1.74,0,3.58,0.61,3.58,2.86v5.81c0,0-0.55,0-1.31,0
			c-0.75,0-1.31,0.12-1.31-0.49V38z"/>
		<path class="st0" d="M184.83,37.5c0-0.49-0.01-0.55-0.01-1.05c0-1.56,1.82-1.56,2.9-1.56c2.91,0,3.69,1.02,3.69,2.89v6.01
			c-0.44-0.24-0.9-0.29-1.34-0.29c-0.83,0-1.7,0.04-2.62,0.04c-1.74,0-3.43-0.37-3.43-2.4c0-2.96,4.74-2.62,4.77-3.49
			c0.01-0.75-0.31-0.99-1.07-1.12C187.04,36.41,185.18,36.87,184.83,37.5z M188.84,39.6c-0.42,0.68-2.2,0.42-2.2,1.46
			c0,0.76,0.53,0.92,1.06,0.92c0.56,0,1.14-0.18,1.14-0.18V39.6z"/>
		<path class="st0" d="M156.83,37.5c0-0.49-0.01-0.55-0.01-1.05c0-1.56,1.83-1.56,2.9-1.56c2.91,0,3.69,1.02,3.69,2.89v6.01
			c-0.44-0.24-0.9-0.29-1.34-0.29c-0.83,0-1.7,0.04-2.62,0.04c-1.74,0-3.43-0.37-3.43-2.4c0-2.96,4.74-2.62,4.77-3.49
			c0.01-0.75-0.31-0.99-1.07-1.12C159.04,36.41,157.18,36.87,156.83,37.5z M160.84,39.6c-0.42,0.68-2.2,0.42-2.2,1.46
			c0,0.76,0.53,0.92,1.06,0.92c0.56,0,1.14-0.18,1.14-0.18V39.6z"/>
		<path class="st0" d="M125.81,37.5c0-0.49-0.01-0.55-0.01-1.05c0-1.56,1.82-1.56,2.9-1.56c2.91,0,3.68,1.02,3.68,2.89v6.01
			c-0.44-0.24-0.9-0.29-1.34-0.29c-0.83,0-1.7,0.04-2.62,0.04c-1.74,0-3.43-0.37-3.43-2.4c0-2.96,4.74-2.62,4.77-3.49
			c0.01-0.75-0.31-0.99-1.07-1.12C128.01,36.41,126.16,36.87,125.81,37.5z M129.82,39.6c-0.42,0.68-2.2,0.42-2.2,1.46
			c0,0.76,0.53,0.92,1.06,0.92c0.56,0,1.14-0.18,1.14-0.18V39.6z"/>
		<path class="st0" d="M178.04,38.44v1.58c0,1.3,0.68,1.7,1.66,1.7c0.12,0,0.66,0.01,1.7,0.01c1.05,0,1.23,1.85,1.23,1.85
			s-2.26,0-3.23,0c-1.9,0-3.58-0.77-3.58-2.98v-2.72c0-2.21,1.67-2.98,3.58-2.98c1.04,0,3.24,0,3.24,0s-0.22,1.87-1.33,1.87
			c-1.1,0-1.52,0-1.61,0C178.72,36.76,178.04,37.16,178.04,38.44z"/>
	</g>
	<g>
		<path class="st0" d="M73.6,22.96l-0.22-0.09v0.24c0,1.13,0.36,1.59,1.25,1.59h0.86c-0.02,1.05-0.52,1.25-1.43,1.25
			c-1,0-1.45-0.44-1.45-1.42v-2.21c0-0.97,0.45-1.4,1.45-1.4c1.41,0,2.23,0.37,2.57,1.17l0.11,0.26l0.17-0.23
			c0.3-0.41,0.45-0.81,0.45-1.15c0-1.2-1.66-1.74-3.31-1.74c-2.31,0-3.63,1.07-3.63,2.93v2.53c0,1.86,1.32,2.93,3.63,2.93
			c2.33,0,3.61-1,3.61-2.83v-1.73h-2.86C73.9,23.07,73.6,22.96,73.6,22.96z"/>
		<path class="st0" d="M88.91,26.14c-0.41-0.72-0.83-1.46-1.58-2.07c1-0.2,1.65-1.03,1.65-2.18v-0.32c0-1.46-1.05-2.2-3.12-2.2
			h-2.83v7.69c0,0.56,0.25,0.56,0.51,0.56l1.64,0v-3.2c0.66,0.4,1.09,1.19,1.45,1.84c0.1,0.18,0.2,0.36,0.28,0.5
			c0.45,0.73,1.19,0.87,1.59,0.87c0.27,0,0.76,0,0.95,0c0.19,0,0.4,0,0.4,0l-0.33-0.45C89.3,26.83,89.1,26.48,88.91,26.14z
			 M85.18,20.99h0.68c0.74,0,0.98,0.18,0.98,0.73c0,0.65-0.24,0.89-0.89,0.89h-0.77V20.99z"/>
		<path class="st0" d="M98.9,19.25h-0.16v5.49c0,0.75-0.52,1.2-1.4,1.2c-0.89,0-1.42-0.45-1.42-1.2v-4.5c0-0.96-1.78-0.99-1.99-0.99
			h-0.16v5.65c0,1.88,1.79,2.72,3.57,2.72c1.77,0,3.55-0.84,3.55-2.72v-4.67C100.89,19.28,99.11,19.25,98.9,19.25z"/>
		<path class="st0" d="M108.8,19.36h-2.51v7.69c0,0.56,0.27,0.56,0.58,0.56h1.57v-2.48h0.36c2.35,0,3.55-0.94,3.55-2.81v-0.19
			C112.35,19.64,110.32,19.36,108.8,19.36z M108.8,23.49h-0.36v-2.49h0.36c0.89,0,1.4,0.2,1.4,1.23
			C110.2,23.3,109.75,23.49,108.8,23.49z"/>
		<path class="st0" d="M120.59,19.23c-2.95,0-3.57,1.54-3.57,2.84v2.72c0,1.29,0.62,2.84,3.57,2.84c2.29,0,3.55-1.01,3.55-2.84
			v-2.72C124.14,20.24,122.88,19.23,120.59,19.23z M119.17,22.21c0-0.91,0.21-1.34,1.41-1.34c1.2,0,1.41,0.43,1.41,1.34v2.44
			c0,0.9-0.22,1.35-1.41,1.35c-1.19,0-1.41-0.46-1.41-1.35V22.21z"/>
	</g>
	<g>
		<polygon class="st0" points="37.23,5.73 42.7,22.57 60.41,22.57 46.08,32.97 51.57,49.81 37.23,39.39 22.91,49.81 28.4,32.97 
			14.06,22.57 31.78,22.57 		"/>
		<g>
			<path class="st0" d="M37.24,1.35C21.41,1.35,8.59,14.18,8.59,30c0,15.82,12.83,28.65,28.65,28.65S65.88,45.82,65.88,30
				C65.88,14.18,53.06,1.35,37.24,1.35z M37.24,57.07c-14.85,0-26.88-12.04-26.88-26.88S22.39,3.3,37.24,3.3
				c14.85,0,26.88,12.04,26.88,26.88S52.08,57.07,37.24,57.07z"/>
		</g>
	</g>
</g>
</svg>
